<?xml version="1.0" encoding="utf-8"?>
<!-- Generator: Adobe Illustrator 17.1.0, SVG Export Plug-In . SVG Version: 6.00 Build 0)  -->
<!DOCTYPE svg PUBLIC "-//W3C//DTD SVG 1.1//EN" "http://www.w3.org/Graphics/SVG/1.1/DTD/svg11.dtd">
<svg version="1.1" id="Layer_1" xmlns="http://www.w3.org/2000/svg" xmlns:xlink="http://www.w3.org/1999/xlink" x="0px" y="0px"
	 viewBox="19 0 183.3 70" enable-background="new 19 0 183.3 70" xml:space="preserve">
<path fill="#FFFFFF" d="M44.4,25.9c-2.4,2.4-5.8,3.9-9.6,3.9c-8.1,0-13.5-6.1-13.5-13.5S26.8,2.8,34.8,2.8c3.5,0,6.6,1.2,9,3.3
	l-2.5,2.9c-1.7-1.4-3.9-2.4-6.4-2.4c-5.8,0-9.5,4.3-9.5,9.8s3.7,9.8,9.5,9.8c2.8,0,5.1-1.1,6.8-2.9L44.4,25.9z"/>
<path fill="#FFFFFF" d="M67.7,14.6v14.9h-3.9V18.1h-7.6l5.2-11.4h-8.5v22.9h-3.9V3.1h18.4l-5.2,11.5L67.7,14.6L67.7,14.6z"/>
<path fill="#FFFFFF" d="M78.1,6.6v7.8h9.8v3.5h-9.8V26h10.1v3.5h-14V3.1h13.9v3.6L78.1,6.6L78.1,6.6z"/>
<path fill="#FFFFFF" d="M116.9,29.5h-26l11.6-26.4h3L116.9,29.5z M111.2,25.9L104,9.1l-7.2,16.8H111.2z"/>
<path fill="#FFFFFF" d="M134.3,6.6h-6.6v22.9h-3.9V6.6h-6.6V3.1h17.1L134.3,6.6L134.3,6.6z"/>
<path fill="#FFFFFF" d="M146.6,6.6v19.3h5.7v3.6H137v-3.6h5.7V6.6H137V3.1h15.3v3.6L146.6,6.6L146.6,6.6z"/>
<path fill="#FFFFFF" d="M166.3,29.5L154.8,3.1h26l-11.5,26.4L166.3,29.5L166.3,29.5z M167.8,23.4L175,6.6h-14.4L167.8,23.4z"/>
<path fill="#FFFFFF" d="M188.7,6.6v7.8h9.8v3.5h-9.8V26h10.1v3.5h-13.9V3.1h13.9v3.6L188.7,6.6L188.7,6.6z"/>
<path fill="#FFFFFF" d="M62.9,49.3c0,4.3-3.1,7.9-8.9,7.9h-4.1v10.8h-3.9V41.5h8.1C59.8,41.5,62.9,45.1,62.9,49.3z M58.7,49.3
	c0-2.4-1.8-4.3-4.9-4.3h-4v8.6h4C57.1,53.6,58.7,51.7,58.7,49.3z"/>
<path fill="#FFFFFF" d="M93.3,54.8c0,7.5-5.9,13.5-13.6,13.5c-7.6,0-13.5-6.1-13.5-13.5c0-7.5,5.9-13.6,13.5-13.6
	C87.4,41.2,93.3,47.2,93.3,54.8z M89.2,54.8c0-5.5-4-9.8-9.5-9.8c-5.5,0-9.5,4.3-9.5,9.8c0,5.5,3.9,9.8,9.5,9.8
	C85.3,64.5,89.2,60.2,89.2,54.8z M79.8,52.1c1.5,0,2.7,1.2,2.7,2.7s-1.2,2.7-2.7,2.7s-2.7-1.2-2.7-2.7S78.2,52.1,79.8,52.1z"/>
<path fill="#FFFFFF" d="M132.2,41.5l-11.6,26.4h-3l-4.5-10.4l-4.5,10.4h-3L94.1,41.5h4.3l8.9,20.9l3.9-9.3l-5.1-11.6H132.2z
	 M126.4,45.1h-14.8l7.4,17.3L126.4,45.1z"/>
<path fill="#FFFFFF" d="M140.4,45.1v7.8h9.8v3.5h-9.8v8.1h10.1v3.5h-13.9V41.5h13.9v3.6C150.5,45.1,140.4,45.1,140.4,45.1z"/>
<path fill="#FFFFFF" d="M174.6,53v14.9h-3.9V56.5h-7.6l5.2-11.4h-8.5v22.9h-3.9V41.5h18.5L169.2,53H174.6z"/>
</svg>
